<?xml version="1.0" standalone="no"?><!DOCTYPE svg PUBLIC "-//W3C//DTD SVG 1.1//EN" "http://www.w3.org/Graphics/SVG/1.1/DTD/svg11.dtd"><svg t="1727245988188" class="icon" viewBox="0 0 1024 1024" version="1.1" xmlns="http://www.w3.org/2000/svg" p-id="103275" width="128" height="128" xmlns:xlink="http://www.w3.org/1999/xlink"><path d="M962.998857 488.374857V262.692571l-177.152 145.298286c29.622857 4.242286 58.624 11.995429 86.125714 23.771429a334.043429 334.043429 0 0 1 91.062858 56.612571zM916.48 153.161143l76.141714 66.377143L994.267429 0l-221.44 19.492571 73.654857 64.402286-198.582857 175.030857-324.425143-77.385143-322.816 310.966858 326.582857-220.562286 332.580571 93.001143 256.658286-211.785143z" fill="#4ca1ff" p-id="103276"></path><path d="M420.242286 883.565714a343.149714 343.149714 0 0 1-27.245715-134.144 342.674286 342.674286 0 0 1 27.245715-134.144 346.514286 346.514286 0 0 1 125.549714-152.283428L361.325714 413.988571V1024h167.789715a340.662857 340.662857 0 0 1-108.909715-140.434286zM33.389714 1024H306.834286V423.972571L33.389714 609.901714V1024z m810.349715-408.356571h-180.297143c-9.398857 0-14.153143 6.253714-14.153143 18.761142v29.769143h206.957714v-29.769143c0-12.507429-4.132571-18.761143-12.507428-18.761142z m-195.949715 92.525714h208.457143v48.64h-208.457143v-48.64z" fill="#4ca1ff" p-id="103277"></path><path d="M737.828571 474.331429a274.797714 274.797714 0 0 0-274.834285 274.834285A274.797714 274.797714 0 0 0 737.828571 1024a274.797714 274.797714 0 0 0 274.797715-274.834286 274.797714 274.797714 0 0 0-274.797715-274.797714z m167.021715 131.949714v274.285714c0 23.04-10.971429 35.547429-32.877715 37.668572a211.017143 211.017143 0 0 1-70.509714-9.398858c-12.507429-5.229714-17.261714-13.604571-14.116571-25.124571 5.229714-12.507429 14.116571-17.737143 26.624-15.616 3.108571 0.987429 7.241143 2.121143 12.507428 3.108571 22.016 5.266286 31.890286 3.145143 29.769143-6.217142v-64.292572h-210.066286c-5.266286 48.128-14.628571 85.138286-28.269714 111.286857-9.362286 13.604571-21.357714 17.737143-35.986286 12.507429-11.52-6.253714-14.153143-16.749714-7.899428-31.378286 18.761143-33.389714 27.648-87.771429 26.660571-163.072v-125.403428c0-21.869714 12.470857-32.877714 37.632-32.877715h228.790857c26.258286-0.987429 38.765714 10.496 37.741715 34.523429z" fill="#4ca1ff" p-id="103278"></path></svg>